<?xml version="1.0" standalone="no"?><!DOCTYPE svg PUBLIC "-//W3C//DTD SVG 1.1//EN" "http://www.w3.org/Graphics/SVG/1.1/DTD/svg11.dtd">
<svg t="1556511959618" class="icon" style="" viewBox="0 0 1024 1024" version="1.1" xmlns="http://www.w3.org/2000/svg" p-id="8731"
     xmlns:xlink="http://www.w3.org/1999/xlink" width="24" height="24">
    <defs>
        <style type="text/css"></style>
    </defs>
    <path d="M357.34582738 1152.71014146h22.0934536v22.0934536H357.34582738zM379.43928098 1108.52323555H357.34582738v-44.1869059h22.0934536v44.1869059z m0-88.3738131H357.34582738v-44.18690592h22.0934536v44.18690592z m0-88.3738118H357.34582738v-44.18690722h22.0934536v44.18690722z m0-88.37381312H357.34582738v-44.1869059h22.0934536v44.1869059z m0-88.37381311H357.34582738v-44.1869059h22.0934536v44.1869059z m0-88.3738118H357.34582738v-44.18690721h22.0934536v44.18690721z m0-88.37381312H357.34582738v-44.1869059h22.0934536v44.1869059z m0-88.3738131H357.34582738v-44.1869059h22.0934536v44.1869059z m0-88.37381181H357.34582738v-44.18690721h22.0934536v44.18690721z m0-88.37381311H357.34582738v-44.1869059h22.0934536v44.1869059z m0-88.37381311H357.34582738v-44.1869059h22.0934536v44.1869059z m0-88.3738118H357.34582738v-44.18690722h22.0934536v44.18690722z m0-88.3738131H357.34582738V3.85057755h22.0934536v44.18690592z m0-88.37381312H357.34582738V-84.52323555h22.0934536v44.1869059zM357.34582738-150.80359506h22.0934536v22.0934536H357.34582738z"
          fill="#666666" p-id="8732"></path>
    <path d="M622.46726541 500.95327385h22.09345361v22.0934523h-22.09345361zM584.90839547 523.04672615H547.3495255v-22.0934523h37.55886997v22.0934523z m-75.11774122 0H470.02243855v-22.0934523h37.55887125l2.20934445 22.0934523z m-77.32708566 0H394.90469865v-22.0934523h37.55886994v22.0934523zM644.56071902 500.95327385h22.0934536v22.0934523h-22.0934536z"
          fill="#666666" p-id="8733"></path>
</svg>