<?xml version="1.0" encoding="utf-8"?>
<!-- Generator: Adobe Illustrator 21.1.0, SVG Export Plug-In . SVG Version: 6.00 Build 0)  -->
<svg version="1.1" id="Layer_1" xmlns="http://www.w3.org/2000/svg" xmlns:xlink="http://www.w3.org/1999/xlink" x="0px" y="0px"
	 viewBox="0 0 2661 1023.6" style="enable-background:new 0 0 2661 1023.6;" xml:space="preserve">
<style type="text/css">
	.st0{fill:none;stroke:#2F9FDD;stroke-width:16.5801;stroke-linecap:round;stroke-miterlimit:10;}
	.st1{fill:none;stroke:#2F9FDD;stroke-width:16.5801;stroke-linecap:round;stroke-linejoin:round;stroke-miterlimit:10;}
	.st2{fill:#2EC5EF;}
	.st3{fill:#2F9FDD;}
	.st4{fill:#629CFD;}
	.st5{fill:#FF0000;}
	.st6{fill:#177FED;}
	.st7{fill:#187FED;}
	.st8{fill:none;}
	.st9{fill:#FFFFFF;}
	.st10{fill:#629CFD;stroke:#629CFD;stroke-width:1.2518;stroke-miterlimit:10;}
	.st11{fill:#629CFD;stroke:#629CFD;stroke-width:128;stroke-miterlimit:10;}
	.st12{fill:#629CFD;stroke:#629CFD;stroke-width:81;stroke-miterlimit:10;}
	.st13{fill:#629CFD;stroke:#629CFD;stroke-width:71.6945;stroke-linecap:round;stroke-linejoin:round;stroke-miterlimit:10;}
	.st14{fill:#629CFD;stroke:#629CFD;stroke-width:79;stroke-miterlimit:10;}
</style>
<g>
	<path class="st6" d="M891.7,733.8c-14-7.5-31.4-2.3-39,11.6C779.2,881.5,637.6,966.1,483,966.1c-136.1,0-257.3-65.2-334-165.9
		l121.2-236.6h392.5l51.9,153c5.1,15,21.4,23.1,36.5,18c15-5.1,23.1-21.4,18-36.5l-45.6-134.5h58.6c15.9,0,28.8-12.9,28.8-28.8
		c0-15.9-12.9-28.8-28.8-28.8H704L579.1,137.8C694.6,165,794.8,240,852.7,347.2c7.5,14,25,19.2,39,11.6c14-7.5,19.2-25,11.6-39
		C831.8,187.4,703.5,98.2,557.9,75.1L539,19.5c-3.7-10.9-13.6-18.6-25.1-19.4c-11.5-0.9-22.4,5.3-27.7,15.6l-27.7,54
		c-118.3,5.9-228.7,54.8-313,139.2C55.4,299,5.8,418.8,5.8,546.3c0,93.2,26.6,182.3,76.1,258.7L3.2,958.7
		c-7.2,14.1-1.7,31.5,12.5,38.7c4.2,2.1,8.7,3.2,13.1,3.2c10.4,0,20.5-5.7,25.6-15.7l65.9-128.7c8.1,9.4,16.4,18.7,25.3,27.5
		c90.1,90.1,210,139.8,337.5,139.8c175.7,0,336.7-96.1,420.3-250.9C910.9,758.7,905.6,741.3,891.7,733.8z M643.2,506H299.6
		l194.2-379.2l12.6-24.5l8.6,25.4L643.2,506z M427.5,130.3L235,506H65.2C83.8,311.8,235.3,155.8,427.5,130.3z M63.7,563.6h141.9
		L113,744.3C83.9,690,66.4,628.7,63.7,563.6z"/>
	<g>
		<g>
			<path class="st6" d="M1182.4,671.3c-34.1,34.1-74.9,51.1-122.2,51.1c-46.6,0-87.1-16.9-121.5-50.7
				c-34.9-34.4-52.3-75.6-52.3-123.6c0-49.3,17-91.4,51-126c33.9-34.4,74.8-51.6,122.8-51.6c47.4,0,88.2,17,122.4,51.1
				c34.6,34.4,51.9,76,51.9,124.7S1217.1,636.8,1182.4,671.3z M1159.8,444.1c-27.8-28.6-61-42.8-99.6-42.8
				c-39.1,0-72.3,14.4-99.8,43.3c-27.3,28.9-41,63.4-41,103.6c0,39.2,14,72.9,42.1,101.1c27.8,28.1,60.7,42.2,98.7,42.2
				c38.5,0,71.6-14.1,99.4-42.4c27.9-28.3,41.9-62.3,41.9-102.3C1201.5,506.9,1187.6,472.7,1159.8,444.1z"/>
		</g>
		<g>
			<path class="st6" d="M1060.2,731.2c-48.7,0-91.7-17.9-127.7-53.2c-36.4-35.9-54.9-79.6-54.9-129.8c0-51.5,18-96,53.5-132.2
				c35.4-36,78.8-54.2,129.1-54.2c49.6,0,92.9,18.1,128.6,53.7c36.1,35.9,54.4,80,54.4,130.9c0,50.9-18.4,95.1-54.7,131.1
				C1152.9,713.2,1109.7,731.2,1060.2,731.2z M1060.2,379.3c-45.4,0-84.6,16.5-116.6,49c-32.2,32.8-48.5,73.2-48.5,119.9
				c0,45.3,16.7,84.8,49.7,117.3c32.5,32,71.4,48.2,115.4,48.2c44.7,0,83.7-16.3,116-48.6l0,0c32.8-32.7,49.5-72.6,49.5-118.7
				c0-46.1-16.6-86-49.3-118.5C1144.1,395.7,1105,379.3,1060.2,379.3z M1060.2,700.3c-40.3,0-75.6-15.1-105-44.8
				c-29.6-29.8-44.6-65.9-44.6-107.3c0-42.4,14.6-79.2,43.4-109.6c29.1-30.5,64.8-46,106.2-46c40.9,0,76.5,15.3,105.9,45.5l0,0
				c29.3,30.1,44.1,66.7,44.1,108.8c0,42.1-14.9,78.6-44.4,108.4C1136.5,685.1,1101,700.3,1060.2,700.3z M1060.2,410.1
				c-36.9,0-67.5,13.3-93.5,40.6c-25.6,27-38.6,59.9-38.6,97.6c0,37.1,12.9,68.2,39.5,95c26.3,26.6,56.6,39.6,92.5,39.6
				c36.4,0,66.8-13,93.1-39.8c26.5-26.8,39.4-58.3,39.4-96.1c0-37.9-12.8-69.5-39.2-96.6C1127.2,423.2,1096.7,410.1,1060.2,410.1z"
				/>
		</g>
	</g>
	<g>
		<g>
			<path class="st6" d="M1893,671.3c-34.1,34.1-74.9,51.1-122.2,51.1c-46.6,0-87.1-16.9-121.5-50.7c-34.9-34.4-52.3-75.6-52.3-123.6
				c0-49.3,17-91.4,51-126c33.9-34.4,74.8-51.6,122.8-51.6c47.4,0,88.2,17,122.4,51.1c34.6,34.4,51.9,76,51.9,124.7
				S1927.7,636.8,1893,671.3z M1870.5,444.1c-27.8-28.6-61-42.8-99.6-42.8c-39.1,0-72.3,14.4-99.8,43.3c-27.3,28.9-41,63.4-41,103.6
				c0,39.2,14,72.9,42.1,101.1c27.8,28.1,60.7,42.2,98.7,42.2c38.5,0,71.6-14.1,99.4-42.4c27.9-28.3,41.9-62.3,41.9-102.3
				C1912.1,506.9,1898.2,472.7,1870.5,444.1z"/>
		</g>
		<g>
			<path class="st6" d="M1770.8,731.2c-48.7,0-91.7-17.9-127.7-53.2c-36.4-35.9-54.9-79.6-54.9-129.8c0-51.5,18-96,53.5-132.2
				c35.4-36,78.8-54.2,129.1-54.2c49.6,0,92.9,18.1,128.6,53.7c36.1,35.9,54.4,80,54.4,130.9c0,50.9-18.4,95.1-54.7,131.1
				C1863.5,713.2,1820.3,731.2,1770.8,731.2z M1770.8,379.3c-45.4,0-84.6,16.5-116.6,49c-32.2,32.8-48.5,73.2-48.5,119.9
				c0,45.3,16.7,84.8,49.7,117.3c32.5,32,71.4,48.2,115.4,48.2c44.7,0,83.7-16.3,116-48.6l0,0c32.8-32.7,49.5-72.6,49.5-118.7
				c0-46.1-16.6-86-49.3-118.5C1854.8,395.7,1815.7,379.3,1770.8,379.3z M1770.8,700.3c-40.3,0-75.6-15.1-105-44.8
				c-29.6-29.8-44.6-65.9-44.6-107.3c0-42.4,14.6-79.2,43.4-109.6c29.1-30.5,64.8-46,106.2-46c40.9,0,76.5,15.3,105.9,45.5l0,0
				c29.3,30.1,44.1,66.7,44.1,108.8c0,42.1-14.9,78.6-44.4,108.4C1847.1,685.1,1811.6,700.3,1770.8,700.3z M1770.8,410.1
				c-36.9,0-67.5,13.3-93.5,40.6c-25.6,27-38.6,59.9-38.6,97.6c0,37.1,12.9,68.2,39.5,95c26.3,26.6,56.6,39.6,92.5,39.6
				c36.4,0,66.8-13,93.1-39.8c26.5-26.8,39.4-58.3,39.4-96.1c0-37.9-12.8-69.5-39.2-96.6l0,0
				C1837.9,423.2,1807.3,410.1,1770.8,410.1z"/>
		</g>
	</g>
	<g>
		<g>
			<path class="st6" d="M1513.8,715.3L1318.8,426h-0.9v289.2c0,11.6-33,11.6-33,0v-329c0-21.4,29.3-21.2,44.5,0l183.6,273h0.9v-273
				c0.2-23.9,32.8-23.2,32.8,0c0,0,0,320.2,0,329C1546.6,726.6,1522.7,726.6,1513.8,715.3z"/>
		</g>
		<g>
			<path class="st6" d="M1301.4,732.6c-15,0-25.1-7-25.1-17.3v-329c0-11.3,6.1-20,16.3-23.3c14.5-4.7,33,3,43.9,18.3l0.1,0.2
				l168.7,250.8v-246c0.2-17.3,12.6-26.3,24.9-26.3c0,0,0.1,0,0.1,0c12.1,0.1,25,9.3,25,26.3v329c0,7.2-4.5,13-12.1,15.6
				c-10.6,3.7-27.4,0.7-36.1-10.3l-0.4-0.5l-180.2-267.1v262.3C1326.5,725.6,1316.4,732.6,1301.4,732.6z M1293.5,713.9
				c3.3,1.8,12.5,1.8,15.7,0V417.4h14.1l197.4,292.8c2.1,2.6,6.4,4.5,10.9,4.9c3.1,0.3,5.3-0.2,6.3-0.6V386.3c0-8.6-6.5-9-7.8-9
				c-1.7,0-7.6,0.6-7.7,9.1v281.5h-14.1l-186.1-276.7c-7.2-10-18.1-13.8-24.5-11.8c-2,0.6-4.3,2-4.3,6.8V713.9z"/>
		</g>
	</g>
	<g>
		<g>
			<path class="st6" d="M2303.5,715.3V422.3h-0.9l-123,292.9c-4.9,9.2-22.8,9.8-28,0l-122.2-292.9h-0.9v292.9c0,9.5-33,9.7-33,0
				v-329c0-23,40.9-18.9,50.6,0l119.6,280.1l120-280.1c8.8-20.1,50.8-21,50.8,0v329C2336.4,724.8,2303.5,724.8,2303.5,715.3z"/>
		</g>
		<g>
			<path class="st6" d="M2320,731.1c-15.3,0-25.1-6.2-25.1-15.8V463.1L2187.4,719l-0.2,0.4c-3.8,7.2-12.2,11.7-21.7,11.7h0
				c-9.4,0-17.6-4.5-21.5-11.7l-0.4-0.8l-106.4-255.2v251.9c0,9.6-9.9,15.8-25.2,15.8c-15.2,0-25-6.2-25-15.8v-329
				c0-11.7,7.2-20.4,19.4-23.3c15.8-3.8,39.2,3.2,47.5,19.4l0.3,0.6l111.6,261.6l112.1-261.6c7.3-16.6,29.5-23.2,45.9-19.8
				c13.2,2.8,21.4,11.6,21.4,23.2v329C2345.1,724.9,2335.2,731.1,2320,731.1z M2312.1,712.8c3.7,1.4,12,1.4,15.7,0V386.3
				c0-3.9-4.2-5.5-7.7-6.3c-9.6-2-23.1,1.7-26.5,9.7l-127.9,298.6L2038.3,390c-4.4-8.1-19-12.4-28-10.3c-6.2,1.5-6.2,4.9-6.2,6.6
				v326.5c3.7,1.3,12,1.3,15.7-0.1V413.7h15.2l124.2,297.7c0.9,1.4,3.3,2.3,6.1,2.3h0c3.2,0,5.6-1.2,6.4-2.3l125-297.7h15.2V712.8z"
				/>
		</g>
	</g>
	<g>
		<g>
			<path class="st6" d="M2535.5,605.5v109.8c0,10.6-33,10.6-33,0V605.5l-114.1-219.2c-9.1-18.3,24.9-19.8,36.5,0l93.7,184.4
				l96.3-184.4c11.7-21.8,44.5-17.9,36,0L2535.5,605.5z"/>
		</g>
		<g>
			<path class="st6" d="M2519.1,731.9c-15,0-25.1-6.7-25.1-16.6V607.6l-113.2-217.3c-5.6-11.3-0.9-20.2,6.3-24.1
				c12.4-6.7,35.4-1.2,45.2,15.8l0.2,0.4l86.2,169.5l88.6-169.6c9.8-18.2,31-23.5,43.9-16.9c9.3,4.7,12.3,14.6,7.6,24.6l-0.2,0.3
				l-114.4,217.3v107.7C2544.2,725.2,2534.1,731.9,2519.1,731.9z M2511.2,713.4c3.5,1.6,12.2,1.6,15.7,0V603.3l116.3-220.9
				c0.3-0.7,0.4-1.2,0.5-1.5c-0.7-0.5-2.8-1.3-6.3-0.9c-2.3,0.3-10.3,1.8-14.9,10.3l-104,199.2l-101.2-199.1
				c-3-4.9-8.4-8.5-14.7-9.6c-3.5-0.6-5.9-0.1-7,0.3c0.1,0.3,0.2,0.7,0.5,1.2l115,220.9V713.4z"/>
		</g>
	</g>
</g>
</svg>
